<svg version="1.1" id="Layer_1" xmlns="http://www.w3.org/2000/svg" xmlns:xlink="http://www.w3.org/1999/xlink" x="0px" y="0px"
	 width="100%" viewBox="0 0 512 512" enable-background="new 0 0 512 512" xml:space="preserve">
<path fill="#000000" opacity="1.000000" stroke="none" 
	d="
M513.000000,336.000000 
	C513.000000,394.971375 513.000000,453.942749 513.000000,512.957031 
	C342.444763,512.957031 171.889511,512.957031 1.000000,512.957031 
	C1.000000,442.312805 1.000000,371.625061 1.375532,300.160095 
	C2.167317,301.066101 2.766046,302.727722 2.968298,304.436249 
	C3.851592,311.898163 3.794283,319.581543 5.611644,326.798431 
	C8.818281,339.532288 12.686974,352.149994 17.167763,364.493561 
	C19.905922,372.036591 24.303839,378.977112 27.956322,386.188232 
	C28.351250,386.036713 28.746180,385.885193 29.141108,385.733673 
	C29.321415,383.196869 29.501722,380.660095 29.702681,377.832764 
	C49.981827,377.832764 69.910599,377.832764 89.260452,377.832764 
	C88.232918,371.088867 86.457077,364.598541 86.387703,358.090027 
	C86.076912,328.928009 86.189079,299.760498 86.340530,270.595978 
	C86.357269,267.371460 87.045578,263.905212 88.358055,260.969330 
	C108.900040,215.019165 129.635529,169.155502 150.207611,123.218719 
	C152.848694,117.321312 156.799927,114.774071 163.366852,114.789200 
	C225.696960,114.932846 288.027679,114.939911 350.357727,114.780991 
	C357.123444,114.763741 361.170654,117.331635 363.895111,123.423592 
	C384.374908,169.217300 405.040222,214.928055 425.497467,260.731781 
	C426.874176,263.814209 427.624786,267.438629 427.651917,270.819092 
	C427.836487,293.816559 427.875641,316.817169 427.698608,339.814728 
	C427.600708,352.530365 429.443817,365.471649 423.504425,378.015442 
	C444.158905,378.015442 464.123688,378.015442 484.717651,378.015442 
	C484.717651,383.444763 484.717651,388.610168 484.717651,394.325684 
	C498.075653,381.877197 510.770874,357.765198 511.084656,339.962463 
	C511.108124,338.630768 512.333374,337.320312 513.000000,336.000000 
M380.163574,278.279236 
	C378.337708,278.265717 376.511047,278.211273 374.686066,278.245117 
	C358.221954,278.550385 362.053864,275.698883 356.940399,291.682892 
	C351.904419,307.424530 346.819183,323.150421 341.190887,339.220612 
	C335.891357,346.233276 328.778168,349.437439 320.060486,349.433258 
	C277.963257,349.413055 235.865738,349.508057 193.768951,349.372711 
	C180.829208,349.331085 172.583527,342.887451 168.803680,330.525635 
	C164.002060,314.822113 159.292313,299.090363 154.604355,283.352448 
	C153.737045,280.440826 152.684280,278.112579 149.001373,278.217438 
	C142.356857,278.406647 135.706879,278.403259 128.136856,278.265289 
	C121.527122,278.265289 114.917397,278.265289 108.363930,278.265289 
	C108.074554,279.109070 107.785629,279.558563 107.785446,280.008209 
	C107.774353,307.096130 107.646873,334.185211 107.876999,361.271271 
	C107.952698,370.180573 115.084198,377.082886 124.120110,377.769379 
	C127.409302,378.019287 130.743423,377.677856 134.968567,377.801910 
	C219.103668,377.819733 303.238770,377.854126 387.373871,377.836365 
	C399.130066,377.833893 406.198792,370.642792 406.230530,358.697235 
	C406.298248,333.206879 406.257660,307.716187 406.235077,282.225677 
	C406.233978,280.974854 405.981873,279.724243 405.856842,278.567871 
	C397.327576,278.567871 389.198425,278.567871 380.163574,278.279236 
M171.877289,268.962585 
	C172.921799,271.762421 174.113358,274.517242 174.986237,277.369598 
	C179.654541,292.624329 184.339920,307.875305 188.790024,323.194244 
	C189.871750,326.917969 191.795166,328.309204 195.575974,328.110901 
	C200.722305,327.840912 205.888580,327.950653 211.968964,328.034973 
	C247.446518,328.046967 282.924286,328.004425 318.401306,328.145233 
	C322.495514,328.161499 324.240906,326.635254 325.348846,322.786957 
	C329.671631,307.771545 334.316864,292.848969 338.841278,277.891602 
	C343.402100,262.813812 351.199951,257.005066 366.899323,257.000244 
	C377.826233,256.996887 388.753143,256.999603 400.198639,256.999603 
	C399.651031,255.492477 399.381500,254.571320 398.991882,253.704117 
	C381.885590,215.627579 364.727722,177.574051 347.729126,139.449524 
	C346.338898,136.331390 344.370575,136.019455 341.493530,136.026855 
	C312.345306,136.101822 283.196808,136.050232 254.048416,136.079895 
	C232.065704,136.102249 210.083069,136.191177 187.158798,136.111618 
	C182.333786,136.093475 177.497360,136.271530 172.687607,135.991364 
	C169.217148,135.789215 167.372406,136.925705 165.903458,140.224442 
	C150.960327,173.781601 135.830338,207.255508 120.773140,240.761948 
	C118.437752,245.958817 116.205559,251.202057 113.739571,256.850067 
	C121.118385,256.850067 127.593750,256.850067 134.990417,256.971222 
	C138.482468,256.980682 141.992355,257.222687 145.463257,256.956360 
	C156.227234,256.130371 165.038422,259.625427 171.877289,268.962585 
M128.632812,466.962616 
	C157.728409,478.073547 187.959976,484.510956 218.944733,485.705719 
	C241.052307,486.558228 263.347412,485.603882 285.404999,483.686523 
	C301.751373,482.265625 317.946442,478.436981 334.037903,474.902405 
	C360.130341,469.171051 385.215363,460.215363 409.373718,448.863678 
	C432.114166,438.178253 453.200531,424.777466 472.196106,408.244415 
	C475.076569,405.737396 477.562042,402.776550 480.745697,399.494141 
	C332.515533,399.494141 185.374161,399.494141 37.557304,399.494141 
	C41.548157,404.417267 44.611641,409.343445 48.749126,413.080536 
	C60.149990,423.378113 71.577690,433.733368 83.786827,443.025085 
	C97.144005,453.190552 112.322105,460.414795 128.632812,466.962616 
z"/>
<path fill="#EFEFEF" opacity="1.000000" stroke="none" 
	d="
M513.000000,335.571533 
	C512.333374,337.320312 511.108124,338.630768 511.084656,339.962463 
	C510.770874,357.765198 498.075653,381.877197 484.717651,394.325684 
	C484.717651,388.610168 484.717651,383.444763 484.717651,378.015442 
	C464.123688,378.015442 444.158905,378.015442 423.504425,378.015442 
	C429.443817,365.471649 427.600708,352.530365 427.698608,339.814728 
	C427.875641,316.817169 427.836487,293.816559 427.651917,270.819092 
	C427.624786,267.438629 426.874176,263.814209 425.497467,260.731781 
	C405.040222,214.928055 384.374908,169.217300 363.895111,123.423592 
	C361.170654,117.331635 357.123444,114.763741 350.357727,114.780991 
	C288.027679,114.939911 225.696960,114.932846 163.366852,114.789200 
	C156.799927,114.774071 152.848694,117.321312 150.207611,123.218719 
	C129.635529,169.155502 108.900040,215.019165 88.358055,260.969330 
	C87.045578,263.905212 86.357269,267.371460 86.340530,270.595978 
	C86.189079,299.760498 86.076912,328.928009 86.387703,358.090027 
	C86.457077,364.598541 88.232918,371.088867 89.260452,377.832764 
	C69.910599,377.832764 49.981827,377.832764 29.702681,377.832764 
	C29.501722,380.660095 29.321415,383.196869 29.141108,385.733673 
	C28.746180,385.885193 28.351250,386.036713 27.956322,386.188232 
	C24.303839,378.977112 19.905922,372.036591 17.167763,364.493561 
	C12.686974,352.149994 8.818281,339.532288 5.611644,326.798431 
	C3.794283,319.581543 3.851592,311.898163 2.968298,304.436249 
	C2.766046,302.727722 2.167317,301.066101 1.375532,299.691467 
	C1.000000,296.638702 1.000000,293.277435 1.376324,289.766663 
	C2.168396,287.768677 2.717127,285.938782 2.977891,284.068665 
	C4.457150,273.459991 4.892402,262.592468 7.527038,252.284348 
	C11.606427,236.323563 17.606396,221.008255 25.700054,206.436295 
	C35.678646,188.470657 47.504524,171.897842 61.621738,157.171280 
	C73.215965,145.076614 85.531830,133.464661 98.711365,123.151169 
	C115.557175,109.968651 133.605713,98.325005 151.095352,85.960770 
	C153.163544,84.498657 154.976349,82.675301 157.235275,81.108597 
	C159.478775,83.019997 161.549011,84.708435 163.271881,86.697701 
	C165.514618,89.287186 167.287476,89.373756 169.703003,86.777763 
	C174.093948,82.058762 178.623505,77.442093 183.398483,73.117554 
	C186.044220,70.721428 186.393890,68.704285 184.428696,66.062195 
	C191.595642,62.786121 198.302185,59.394016 205.188431,56.417622 
	C216.642456,51.466908 228.015427,46.220428 239.777420,42.115314 
	C258.515472,35.575459 277.601929,30.427959 297.601532,28.841787 
	C315.387115,27.431210 332.931274,27.426390 350.350372,31.694969 
	C365.336395,35.367317 379.175720,41.553192 391.749542,50.444115 
	C390.162659,51.272297 388.767822,51.801476 387.394287,52.381245 
	C376.277924,57.073559 371.201569,70.128654 376.213135,81.115448 
	C381.140900,91.918526 394.702454,96.441010 405.436005,90.875221 
	C411.981384,87.481186 415.362213,81.808182 417.353180,75.014626 
	C422.463409,83.480904 428.255859,91.409294 431.834259,100.235344 
	C440.379303,121.311432 443.793152,143.859375 449.215820,165.843933 
	C454.316864,186.524414 460.534821,206.966568 467.128845,227.231293 
	C473.899719,248.039444 483.791870,267.498871 495.476349,286.022339 
	C503.616028,298.926270 510.793915,312.192871 511.086823,328.041229 
	C511.099121,328.705719 512.334473,329.347595 513.000000,330.000000 
	C513.000000,331.714355 513.000000,333.428711 513.000000,335.571533 
M99.631325,136.858047 
	C102.553284,140.379166 105.475250,143.900269 108.652596,147.729141 
	C115.160492,141.218323 120.948456,135.546494 126.542725,129.689651 
	C127.292374,128.904816 127.716820,126.638672 127.175941,125.992378 
	C124.694359,123.027176 121.816116,120.393944 118.848663,117.408554 
	C112.174484,124.120499 106.107414,130.221893 99.631325,136.858047 
z"/>
<path fill="#000000" opacity="1.000000" stroke="none" 
	d="
M156.907532,81.019394 
	C154.976349,82.675301 153.163544,84.498657 151.095352,85.960770 
	C133.605713,98.325005 115.557175,109.968651 98.711365,123.151169 
	C85.531830,133.464661 73.215965,145.076614 61.621738,157.171280 
	C47.504524,171.897842 35.678646,188.470657 25.700054,206.436295 
	C17.606396,221.008255 11.606427,236.323563 7.527038,252.284348 
	C4.892402,262.592468 4.457150,273.459991 2.977891,284.068665 
	C2.717127,285.938782 2.168396,287.768677 1.376324,289.308594 
	C1.000000,193.037155 1.000000,97.074310 1.000000,1.055730 
	C171.563446,1.055730 342.126892,1.055730 513.000000,1.055730 
	C513.000000,110.354034 513.000000,219.708359 513.000000,329.531342 
	C512.334473,329.347595 511.099121,328.705719 511.086823,328.041229 
	C510.793915,312.192871 503.616028,298.926270 495.476349,286.022339 
	C483.791870,267.498871 473.899719,248.039444 467.128845,227.231293 
	C460.534821,206.966568 454.316864,186.524414 449.215820,165.843933 
	C443.793152,143.859375 440.379303,121.311432 431.834259,100.235344 
	C428.255859,91.409294 422.463409,83.480904 417.343628,74.572357 
	C418.759125,57.845322 404.804321,48.817574 391.951447,50.168552 
	C379.175720,41.553192 365.336395,35.367317 350.350372,31.694969 
	C332.931274,27.426390 315.387115,27.431210 297.601532,28.841787 
	C277.601929,30.427959 258.515472,35.575459 239.777420,42.115314 
	C228.015427,46.220428 216.642456,51.466908 205.188431,56.417622 
	C198.302185,59.394016 191.595642,62.786121 184.106934,65.943558 
	C181.177246,63.549999 178.948959,61.204292 176.674911,58.810410 
	C170.068802,65.424034 163.911880,71.508293 157.889893,77.723297 
	C157.182251,78.453613 157.216965,79.903229 156.907532,81.019394 
M101.918915,71.378662 
	C108.247955,77.683121 114.577003,83.987587 120.758751,90.145317 
	C124.661888,86.321976 128.203323,82.852928 130.973434,80.139442 
	C124.147430,73.278488 117.259735,66.355522 109.934761,58.993046 
	C107.924767,61.172668 105.421921,63.624180 103.261879,66.347580 
	C102.284531,67.579834 101.988403,69.352394 101.918915,71.378662 
z"/>
<path fill="#007ACC" opacity="1.000000" stroke="none" 
	d="
M188.100388,136.250488 
	C210.083069,136.191177 232.065704,136.102249 254.048416,136.079895 
	C283.196808,136.050232 312.345306,136.101822 341.493530,136.026855 
	C344.370575,136.019455 346.338898,136.331390 347.729126,139.449524 
	C364.727722,177.574051 381.885590,215.627579 398.991882,253.704117 
	C399.381500,254.571320 399.651031,255.492477 400.198639,256.999603 
	C388.753143,256.999603 377.826233,256.996887 366.899323,257.000244 
	C351.199951,257.005066 343.402100,262.813812 338.841278,277.891602 
	C334.316864,292.848969 329.671631,307.771545 325.348846,322.786957 
	C324.240906,326.635254 322.495514,328.161499 318.401306,328.145233 
	C282.924286,328.004425 247.446518,328.046967 211.440079,327.597351 
	C206.252090,311.641449 201.505905,296.148590 196.971237,280.594025 
	C194.758698,273.004730 190.360428,268.300934 184.094864,268.030365 
	C179.968658,267.852173 175.821320,268.162842 171.683441,268.254639 
	C165.038422,259.625427 156.227234,256.130371 145.463257,256.956360 
	C141.992355,257.222687 138.482468,256.980682 134.563782,256.562256 
	C140.814590,241.316132 147.491882,226.478958 154.169449,211.641891 
	C165.479675,186.511383 176.790085,161.380966 188.100388,136.250488 
z"/>
<path fill="#EEEEEE" opacity="1.000000" stroke="none" 
	d="
M128.310349,466.723877 
	C112.322105,460.414795 97.144005,453.190552 83.786827,443.025085 
	C71.577690,433.733368 60.149990,423.378113 48.749126,413.080536 
	C44.611641,409.343445 41.548157,404.417267 37.557304,399.494141 
	C185.374161,399.494141 332.515533,399.494141 480.745697,399.494141 
	C477.562042,402.776550 475.076569,405.737396 472.196106,408.244415 
	C453.200531,424.777466 432.114166,438.178253 409.373718,448.863678 
	C385.215363,460.215363 360.130341,469.171051 334.037903,474.902405 
	C317.946442,478.436981 301.751373,482.265625 285.404999,483.686523 
	C263.347412,485.603882 241.052307,486.558228 218.944733,485.705719 
	C187.959976,484.510956 157.728409,478.073547 128.310349,466.723877 
z"/>
<path fill="#F2F2F0" opacity="1.000000" stroke="none" 
	d="
M129.059174,278.480286 
	C135.706879,278.403259 142.356857,278.406647 149.001373,278.217438 
	C152.684280,278.112579 153.737045,280.440826 154.604355,283.352448 
	C159.292313,299.090363 164.002060,314.822113 168.803680,330.525635 
	C172.583527,342.887451 180.829208,349.331085 193.768951,349.372711 
	C235.865738,349.508057 277.963257,349.413055 320.060486,349.433258 
	C328.778168,349.437439 335.891357,346.233276 341.953308,339.078186 
	C345.044373,338.951263 347.373016,338.980927 349.701630,338.979919 
	C360.015808,338.975525 364.657043,335.543793 367.542603,325.843903 
	C370.473694,315.990967 373.490112,306.162872 376.345612,296.288147 
	C378.043365,290.417023 379.502716,284.476959 381.069244,278.567871 
	C389.198425,278.567871 397.327576,278.567871 405.856842,278.567871 
	C405.981873,279.724243 406.233978,280.974854 406.235077,282.225677 
	C406.257660,307.716187 406.298248,333.206879 406.230530,358.697235 
	C406.198792,370.642792 399.130066,377.833893 387.373871,377.836365 
	C303.238770,377.854126 219.103668,377.819733 134.463409,377.363739 
	C132.301529,371.922516 129.293137,366.941101 129.212616,361.912811 
	C128.767380,334.108276 129.035507,306.292328 129.059174,278.480286 
z"/>
<path fill="#08568A" opacity="1.000000" stroke="none" 
	d="
M187.629593,136.181061 
	C176.790085,161.380966 165.479675,186.511383 154.169449,211.641891 
	C147.491882,226.478958 140.814590,241.316132 134.103134,256.501648 
	C127.593750,256.850067 121.118385,256.850067 113.739571,256.850067 
	C116.205559,251.202057 118.437752,245.958817 120.773140,240.761948 
	C135.830338,207.255508 150.960327,173.781601 165.903458,140.224442 
	C167.372406,136.925705 169.217148,135.789215 172.687607,135.991364 
	C177.497360,136.271530 182.333786,136.093475 187.629593,136.181061 
z"/>
<path fill="#D1D6DB" opacity="1.000000" stroke="none" 
	d="
M128.598022,278.372803 
	C129.035507,306.292328 128.767380,334.108276 129.212616,361.912811 
	C129.293137,366.941101 132.301529,371.922516 134.007629,377.265869 
	C130.743423,377.677856 127.409302,378.019287 124.120110,377.769379 
	C115.084198,377.082886 107.952698,370.180573 107.876999,361.271271 
	C107.646873,334.185211 107.774353,307.096130 107.785446,280.008209 
	C107.785629,279.558563 108.074554,279.109070 108.363930,278.265289 
	C114.917397,278.265289 121.527122,278.265289 128.598022,278.372803 
z"/>
<path fill="#D2D7DD" opacity="1.000000" stroke="none" 
	d="
M380.616394,278.423553 
	C379.502716,284.476959 378.043365,290.417023 376.345612,296.288147 
	C373.490112,306.162872 370.473694,315.990967 367.542603,325.843903 
	C364.657043,335.543793 360.015808,338.975525 349.701630,338.979919 
	C347.373016,338.980927 345.044373,338.951263 342.235657,338.909485 
	C346.819183,323.150421 351.904419,307.424530 356.940399,291.682892 
	C362.053864,275.698883 358.221954,278.550385 374.686066,278.245117 
	C376.511047,278.211273 378.337708,278.265717 380.616394,278.423553 
z"/>
<path fill="#08568A" opacity="1.000000" stroke="none" 
	d="
M171.780365,268.608612 
	C175.821320,268.162842 179.968658,267.852173 184.094864,268.030365 
	C190.360428,268.300934 194.758698,273.004730 196.971237,280.594025 
	C201.505905,296.148590 206.252090,311.641449 210.978745,327.528625 
	C205.888580,327.950653 200.722305,327.840912 195.575974,328.110901 
	C191.795166,328.309204 189.871750,326.917969 188.790024,323.194244 
	C184.339920,307.875305 179.654541,292.624329 174.986237,277.369598 
	C174.113358,274.517242 172.921799,271.762421 171.780365,268.608612 
z"/>
<path fill="#A5B0C2" opacity="1.000000" stroke="none" 
	d="
M391.749542,50.444115 
	C404.804321,48.817574 418.759125,57.845322 417.019226,74.442581 
	C415.362213,81.808182 411.981384,87.481186 405.436005,90.875221 
	C394.702454,96.441010 381.140900,91.918526 376.213135,81.115448 
	C371.201569,70.128654 376.277924,57.073559 387.394287,52.381245 
	C388.767822,51.801476 390.162659,51.272297 391.749542,50.444115 
M388.999878,74.512100 
	C390.786011,78.899055 394.205048,79.909920 398.330322,78.586273 
	C401.616913,77.531715 403.600067,73.052887 402.375946,70.020485 
	C400.891998,66.344467 398.051300,64.313408 394.142548,65.238289 
	C389.870331,66.249168 387.809296,69.210938 388.999878,74.512100 
z"/>
<path fill="#A6B0C2" opacity="1.000000" stroke="none" 
	d="
M157.235275,81.108589 
	C157.216965,79.903229 157.182251,78.453613 157.889893,77.723297 
	C163.911880,71.508293 170.068802,65.424034 176.674911,58.810410 
	C178.948959,61.204292 181.177246,63.549999 183.727295,66.014343 
	C186.393890,68.704285 186.044220,70.721428 183.398483,73.117554 
	C178.623505,77.442093 174.093948,82.058762 169.703003,86.777763 
	C167.287476,89.373756 165.514618,89.287186 163.271881,86.697701 
	C161.549011,84.708435 159.478775,83.019997 157.235275,81.108589 
z"/>
<path fill="#A6B0C2" opacity="1.000000" stroke="none" 
	d="
M99.835831,136.590668 
	C106.107414,130.221893 112.174484,124.120499 118.848663,117.408554 
	C121.816116,120.393944 124.694359,123.027176 127.175941,125.992378 
	C127.716820,126.638672 127.292374,128.904816 126.542725,129.689651 
	C120.948456,135.546494 115.160492,141.218323 108.652596,147.729141 
	C105.475250,143.900269 102.553284,140.379166 99.835831,136.590668 
z"/>
<path fill="#A4AFC1" opacity="1.000000" stroke="none" 
	d="
M101.651070,71.129250 
	C101.988403,69.352394 102.284531,67.579834 103.261879,66.347580 
	C105.421921,63.624180 107.924767,61.172668 109.934761,58.993046 
	C117.259735,66.355522 124.147430,73.278488 130.973434,80.139442 
	C128.203323,82.852928 124.661888,86.321976 120.758751,90.145317 
	C114.577003,83.987587 108.247955,77.683121 101.651070,71.129250 
z"/>
<path fill="#EDEDED" opacity="1.000000" stroke="none" 
	d="
M388.905273,74.153770 
	C387.809296,69.210938 389.870331,66.249168 394.142548,65.238289 
	C398.051300,64.313408 400.891998,66.344467 402.375946,70.020485 
	C403.600067,73.052887 401.616913,77.531715 398.330322,78.586273 
	C394.205048,79.909920 390.786011,78.899055 388.905273,74.153770 
z"/>
</svg>