<?xml version="1.0" standalone="no"?>
<!DOCTYPE svg PUBLIC "-//W3C//DTD SVG 20010904//EN"
 "http://www.w3.org/TR/2001/REC-SVG-20010904/DTD/svg10.dtd">
<svg version="1.0" xmlns="http://www.w3.org/2000/svg"
 width="512.000000pt" height="512.000000pt" viewBox="0 0 512.000000 512.000000"
 preserveAspectRatio="xMidYMid meet">

<g transform="translate(0.000000,512.000000) scale(0.100000,-0.100000)"
fill="#000000" stroke="none">
<path d="M0 2560 l0 -2560 2560 0 2560 0 0 2560 0 2560 -2560 0 -2560 0 0
-2560z m3291 2280 c200 -21 377 -76 529 -166 61 -35 103 -54 125 -54 108 0
196 -81 212 -196 4 -31 21 -68 51 -112 92 -136 141 -280 232 -679 158 -693
258 -968 490 -1353 104 -171 133 -237 156 -350 30 -152 8 -308 -66 -467 -39
-83 -125 -216 -160 -248 -20 -18 -20 -17 -20 58 l0 77 -305 0 c-168 0 -305 2
-305 4 0 2 8 23 17 47 16 40 18 93 18 564 l0 520 -325 720 c-207 460 -334 730
-351 748 l-27 27 -1002 0 -1002 0 -27 -27 c-17 -18 -144 -288 -351 -748 l-325
-720 0 -520 c0 -471 2 -524 18 -564 9 -24 17 -45 17 -47 0 -2 -137 -4 -304 -4
l-305 0 -3 -38 -3 -37 -36 66 c-212 383 -272 848 -165 1270 154 608 632 1161
1429 1654 56 34 75 51 67 59 -7 7 18 38 87 108 l97 98 38 -37 37 -37 158 77
c208 100 355 159 535 212 296 89 536 118 769 95z m-2088 -408 l97 -98 -50 -49
-50 -49 -95 94 c-52 52 -95 99 -95 104 0 11 80 96 90 96 3 0 49 -44 103 -98z
m309 -2094 c9 -7 50 -129 93 -273 84 -283 97 -314 147 -362 68 -66 35 -63 810
-63 797 0 747 -5 824 83 38 43 46 65 124 324 46 155 89 284 98 291 12 9 73 12
229 12 l213 0 0 -429 c0 -280 -4 -440 -11 -458 -15 -40 -48 -73 -94 -94 -38
-18 -98 -19 -1375 -19 -888 0 -1347 4 -1372 10 -48 14 -97 55 -114 97 -11 26
-14 122 -14 463 l0 430 213 0 c155 0 217 -3 229 -12z m3213 -1265 c-392 -371
-1078 -662 -1795 -762 -956 -134 -1809 84 -2354 599 -78 74 -196 209 -196 224
0 3 993 6 2208 6 l2207 -1 -70 -66z"/>
</g>
</svg>
